<svg width="80" height="80" viewBox="0 0 80 80" fill="none" xmlns="http://www.w3.org/2000/svg">
<path d="M51.4818 39.9995C51.4818 36.3145 51.4818 32.6295 51.4818 28.9445C51.4818 28.4749 51.4818 28.4749 51.0121 28.4749C47.3813 28.4749 43.7505 28.4749 40.1197 28.4749C38.1688 28.4749 36.2901 28.1316 34.4838 27.373C33.129 26.7949 31.8826 26.0362 30.7626 25.0789C29.4982 23.995 28.4324 22.7306 27.6015 21.2674C26.7344 19.732 26.1564 18.0882 25.9035 16.336C25.777 15.4689 25.7228 14.6019 25.759 13.7348C25.8312 11.802 26.2647 9.95947 27.0957 8.20728C27.5834 7.19571 28.1614 6.23833 28.8659 5.3532C29.2091 4.91967 29.5885 4.52227 29.9859 4.12487C30.6904 3.42038 31.4491 2.82427 32.28 2.28236C34.0502 1.12628 35.9831 0.421789 38.0604 0.132769C38.9094 0.00632234 39.7765 -0.0298053 40.6435 0.0243861C42.5222 0.114705 44.3105 0.548236 46.0265 1.36111C47.0562 1.84883 48.0316 2.44493 48.9167 3.16749C50.1631 4.16099 51.2108 5.3532 52.0598 6.70799C52.8546 7.99052 53.4507 9.36336 53.812 10.8265C53.9927 11.5852 54.101 12.3439 54.1733 13.1206C54.2094 13.5903 54.2275 14.0419 54.2275 14.5115C54.2275 18.052 54.2275 21.6106 54.2275 25.1511C54.2275 25.8737 54.1552 25.8014 54.8959 25.8014C58.5447 25.8014 62.1936 25.8014 65.8425 25.8014C67.2695 25.8014 68.6605 26.0182 70.0333 26.4336C71.7132 26.9575 73.2306 27.7884 74.6215 28.8723C75.0731 29.2155 75.4886 29.5948 75.886 29.9922C76.446 30.5522 76.9517 31.1483 77.4033 31.7986C78.6859 33.605 79.4807 35.6101 79.8419 37.7958C79.9323 38.3016 79.9684 38.8073 79.9865 39.3131C80.0045 39.7647 80.0045 40.2163 79.9865 40.6679C79.9503 41.553 79.8419 42.4201 79.6252 43.2691C79.3362 44.4432 78.9388 45.5632 78.3607 46.6109C77.7646 47.7309 77.024 48.7605 76.1569 49.6998C75.3983 50.5127 74.5673 51.2172 73.6461 51.8313C72.8874 52.3371 72.0926 52.7707 71.2436 53.1139C70.0514 53.6196 68.805 53.9448 67.5224 54.1074C67.0347 54.1796 66.547 54.1977 66.0593 54.1977C62.2839 54.1977 58.5086 54.1977 54.7152 54.1977C54.2275 54.1977 54.2275 54.1977 54.2275 54.6854C54.2275 58.3162 54.2275 61.9471 54.2275 65.5779C54.2275 66.8965 54.083 68.1971 53.7217 69.4797C53.1979 71.3944 52.3127 73.1105 51.0844 74.664C50.7773 75.0433 50.4522 75.4226 50.1089 75.7658C49.5128 76.362 48.8806 76.9039 48.1761 77.3916C47.0381 78.1864 45.8098 78.8186 44.4911 79.2522C43.4073 79.6134 42.2873 79.8302 41.1493 79.9205C40.7338 79.9566 40.3364 79.9747 39.921 79.9566C38.0965 79.9566 36.3263 79.6134 34.6463 78.927C33.3458 78.4032 32.1355 77.6987 31.0517 76.7955C29.5524 75.5672 28.324 74.104 27.4208 72.3879C26.6983 71.0331 26.2106 69.588 25.9577 68.0707C25.8312 67.3301 25.759 66.5894 25.759 65.8308C25.759 62.0916 25.759 58.3704 25.759 54.6312C25.759 54.1796 25.759 54.1796 25.3074 54.1796C21.5501 54.1796 17.7928 54.1796 14.0356 54.1796C12.1208 54.1796 10.2964 53.7642 8.54417 53.0055C7.20745 52.4274 5.99718 51.6688 4.91335 50.7114C4.04629 49.9346 3.25148 49.1037 2.58312 48.1463C1.80638 47.0444 1.21027 45.8703 0.776743 44.5877C0.451595 43.6304 0.234829 42.6369 0.108383 41.6434C0.0361276 41.1195 0 40.5957 0 40.0718C0 38.6809 0.198702 37.308 0.578041 35.9713C0.939317 34.7249 1.48123 33.5327 2.16765 32.4308C2.63731 31.6721 3.19729 30.9677 3.81146 30.2993C4.66046 29.378 5.61784 28.6013 6.66554 27.9329C8.1829 26.9756 9.80864 26.3433 11.5789 26.0001C12.7892 25.7653 14.0356 25.7292 15.2639 25.8014C16.4922 25.8737 17.6845 26.1266 18.8405 26.524C20.3579 27.0478 21.7307 27.7884 22.9952 28.7819C24.4764 29.938 25.6867 31.347 26.626 32.9908C27.4931 34.5082 28.035 36.152 28.324 37.868C28.4143 38.428 28.4505 39.006 28.4685 39.5841C28.5588 43.3955 28.4866 47.1889 28.5047 51.0004C28.5047 51.5604 28.4866 51.5243 29.0466 51.5243C36.3805 51.5243 43.6963 51.5243 51.0302 51.5243C51.5541 51.5243 51.536 51.5604 51.536 51.0365C51.4818 47.3515 51.4818 43.6846 51.4818 39.9995ZM39.9932 54.1977C36.2901 54.1977 32.6051 54.1977 28.9021 54.1977C28.4685 54.1977 28.4685 54.1977 28.4685 54.6132C28.4685 58.4427 28.4685 62.2541 28.4685 66.0837C28.4685 66.3546 28.4685 66.6256 28.4866 66.8965C28.5769 67.6733 28.7214 68.45 28.9562 69.2087C29.4801 70.8706 30.3472 72.3337 31.5213 73.6163C32.28 74.4291 33.147 75.1156 34.1044 75.6936C35.8566 76.7413 37.7714 77.2471 39.8126 77.3013C40.3184 77.3193 40.8242 77.2651 41.3299 77.211C42.9015 77.0123 44.3827 76.5245 45.7375 75.7297C46.9117 75.0433 47.9413 74.1762 48.8084 73.1285C49.6212 72.135 50.2535 71.0512 50.7051 69.859C51.1747 68.6307 51.4276 67.3481 51.4276 66.0295C51.4276 62.2541 51.4276 58.4788 51.4276 54.7035C51.4276 54.2338 51.4276 54.2338 50.958 54.2338C47.3452 54.1977 43.6602 54.1977 39.9932 54.1977ZM51.4818 19.443C51.4818 17.6908 51.4818 15.9205 51.4818 14.1683C51.4818 13.6264 51.4457 13.1026 51.3734 12.5607C51.0302 10.122 49.9644 8.04471 48.2845 6.25639C47.4716 5.40739 46.5504 4.70291 45.5207 4.14293C44.4369 3.54682 43.2808 3.13136 42.0525 2.91459C41.1854 2.77008 40.3184 2.67976 39.4333 2.75202C38.9275 2.78815 38.4397 2.80621 37.952 2.91459C35.0437 3.47457 32.6593 4.91967 30.8349 7.2499C29.8594 8.4963 29.1911 9.90528 28.7937 11.4407C28.3963 13.0122 28.3601 14.6199 28.613 16.2095C28.8659 17.763 29.4259 19.2081 30.293 20.5268C30.853 21.3758 31.5213 22.1525 32.28 22.839C33.0206 23.5073 33.8154 24.0492 34.6825 24.5189C36.3624 25.404 38.1688 25.8014 40.0474 25.8195C43.7144 25.8375 47.3813 25.8195 51.0483 25.8195C51.4818 25.8195 51.4818 25.8195 51.4818 25.3859C51.4818 23.3809 51.4818 21.4119 51.4818 19.443ZM19.4728 51.5243C21.4237 51.5243 23.3565 51.5243 25.3074 51.5243C25.759 51.5243 25.759 51.5243 25.759 51.0546C25.759 47.6225 25.759 44.1903 25.759 40.7402C25.759 40.1621 25.759 39.5841 25.7228 38.988C25.6506 37.9403 25.3977 36.9468 25.0364 35.9713C24.6751 34.9959 24.1874 34.0927 23.5913 33.2618C22.941 32.3766 22.2004 31.5818 21.3333 30.9135C20.4301 30.227 19.4728 29.6851 18.4251 29.2516C17.269 28.7819 16.0406 28.5471 14.8123 28.4749C14.1259 28.4207 13.4214 28.4749 12.735 28.5652C11.3079 28.7458 9.97121 29.1793 8.72481 29.8838C7.5326 30.5522 6.4849 31.3831 5.58171 32.4128C4.51595 33.623 3.7392 34.9959 3.25148 36.5494C2.98053 37.3984 2.79989 38.2654 2.7457 39.1686C2.6915 39.9815 2.70957 40.8124 2.83601 41.6253C3.03472 42.9439 3.43212 44.2084 4.04629 45.3826C4.96754 47.1167 6.25007 48.5437 7.87581 49.6276C8.99577 50.3682 10.2241 50.9101 11.5428 51.2352C12.4279 51.452 13.3491 51.5604 14.2704 51.5423C15.9865 51.5242 17.7206 51.5243 19.4728 51.5243ZM54.2094 39.9995C54.2094 43.7026 54.2094 47.4057 54.2094 51.1088C54.2094 51.5242 54.2094 51.5243 54.6249 51.5243C58.3822 51.5243 62.1214 51.5243 65.8786 51.5243C66.3122 51.5243 66.7457 51.4881 67.1792 51.4339C68.5159 51.2533 69.7985 50.8559 71.0088 50.2417C72.5442 49.4469 73.8448 48.3631 74.8925 46.9902C75.3983 46.3399 75.8137 45.6355 76.1569 44.9129C76.7892 43.6123 77.1504 42.2214 77.2408 40.7763C77.3491 39.2228 77.1504 37.7055 76.6266 36.2423C75.9582 34.3456 74.8925 32.7198 73.3751 31.3831C72.508 30.6064 71.5507 29.9922 70.503 29.5045C68.9856 28.8 67.3779 28.4568 65.7161 28.4568C62.031 28.4568 58.346 28.4568 54.661 28.4568C54.1914 28.4568 54.1914 28.4568 54.1914 28.9264C54.2094 32.6295 54.2094 36.3145 54.2094 39.9995Z" fill="#0173B1"/>
<path d="M44.9784 70.8165C44.8339 70.8165 44.6893 70.8165 44.5268 70.8165C44.3642 70.8165 44.2558 70.7623 44.1836 70.5998C43.8584 69.8411 43.5152 69.1005 43.19 68.3418C42.9552 67.7818 42.9913 67.8721 42.4856 67.8721C40.7876 67.8721 39.0896 67.8721 37.4096 67.8721C37.3193 67.8721 37.2471 67.8721 37.1567 67.8721C36.9942 67.8541 36.8858 67.9263 36.8135 68.0889C36.7051 68.3418 36.5787 68.5947 36.4703 68.8476C36.2174 69.4256 35.9465 70.0037 35.6936 70.5998C35.6213 70.7623 35.531 70.8346 35.3504 70.8346C35.0794 70.8346 34.7904 70.8346 34.5194 70.8346C34.2665 70.8346 34.2485 70.7985 34.3569 70.5456C34.5375 70.1301 34.7181 69.7327 34.8988 69.3353C35.5852 67.8179 36.2716 66.3006 36.958 64.7832C37.4458 63.6813 37.9515 62.5975 38.4573 61.4956C38.7102 60.9176 38.9812 60.3576 39.2341 59.7796C39.3244 59.5628 39.4689 59.4725 39.7037 59.4905C39.9205 59.5086 40.1553 59.5086 40.3721 59.4905C40.5527 59.4905 40.6431 59.5628 40.7153 59.7073C40.9863 60.3215 41.2753 60.9356 41.5462 61.5498C41.9256 62.4169 42.323 63.2659 42.7023 64.1329C43.0997 65 43.4791 65.849 43.8765 66.716C44.2016 67.4205 44.5087 68.125 44.8339 68.8476C45.1048 69.4256 45.3577 70.0037 45.6287 70.5998C45.719 70.7985 45.7009 70.8346 45.4661 70.8527C45.2854 70.8165 45.1409 70.8165 44.9784 70.8165ZM39.9566 61.1524C39.8663 61.1885 39.8482 61.2969 39.8121 61.3692C39.505 62.0556 39.1979 62.742 38.8909 63.4104C38.4573 64.3678 38.0419 65.3251 37.6083 66.2825C37.4458 66.6619 37.4458 66.6799 37.8612 66.6799C39.2521 66.6799 40.6431 66.6799 42.034 66.6799C42.4494 66.6799 42.4675 66.6438 42.3049 66.2645C41.5824 64.6387 40.8598 62.9949 40.1192 61.3692C40.0831 61.2969 40.065 61.1885 39.9566 61.1524Z" fill="#0173B1"/>
<path d="M39.9748 8.46032C41.3838 8.44225 42.576 8.83966 43.6418 9.6164C43.6779 9.65253 43.7321 9.68865 43.7682 9.72478C43.8585 9.79704 43.8766 9.88736 43.8043 9.99574C43.6237 10.2486 43.4431 10.4835 43.2624 10.7364C43.1721 10.8447 43.0998 10.8267 43.0095 10.7544C42.6663 10.5015 42.3231 10.2486 41.9257 10.0861C40.9864 9.68865 40.029 9.50802 39.0355 9.77897C38.5478 9.90542 38.1142 10.1402 37.8252 10.6099C37.3014 11.4408 37.5723 12.4524 38.4213 12.9221C38.9813 13.2472 39.5955 13.3917 40.2277 13.5543C40.9322 13.7349 41.6547 13.8795 42.3231 14.1685C42.7205 14.331 43.0818 14.5478 43.4069 14.8368C43.8946 15.2704 44.1656 15.8123 44.2379 16.4806C44.3462 17.3658 44.1114 18.1425 43.5514 18.847C43.2444 19.2444 42.8289 19.4792 42.3954 19.696C41.8715 19.9489 41.3115 20.0573 40.7335 20.0934C39.5232 20.1656 38.3852 19.9308 37.3014 19.3708C36.8136 19.1179 36.3801 18.8109 35.9646 18.4677C35.7659 18.3051 35.7659 18.287 35.9285 18.0883C36.0911 17.8896 36.2537 17.6728 36.4343 17.4922C36.5788 17.3477 36.5969 17.3477 36.7595 17.4741C37.0123 17.6728 37.2652 17.8715 37.5362 18.0522C38.5116 18.7025 39.6135 18.9734 40.7877 18.9012C41.2935 18.8651 41.7812 18.7025 42.2147 18.4135C43.0998 17.7993 43.2624 16.1916 42.0883 15.5774C41.5464 15.2884 40.9683 15.1078 40.3541 14.9813C39.5774 14.8188 38.8007 14.6201 38.06 14.313C37.5543 14.0962 37.0846 13.8072 36.7595 13.3556C36.0008 12.3079 36.0369 10.8086 36.8678 9.8151C37.3194 9.25512 37.9155 8.91191 38.602 8.71321C39.0536 8.49644 39.5413 8.42419 39.9748 8.46032Z" fill="#0173B1"/>
<path d="M14.3964 45.8524C13.0778 45.8343 11.8494 45.5092 10.7837 44.6783C9.91662 43.9918 9.24826 43.1248 8.88699 42.059C8.63409 41.3545 8.50765 40.65 8.52571 39.9094C8.5799 38.2475 9.17601 36.8024 10.4224 35.6644C11.3617 34.7974 12.4817 34.3096 13.7642 34.1832C14.541 34.1109 15.2996 34.1651 16.0583 34.3458C17.106 34.5987 17.9911 35.1586 18.7317 35.9534C18.8582 36.098 18.8582 36.116 18.7317 36.2605C18.3343 36.7121 17.9189 37.1457 17.5034 37.5792C17.2686 37.8321 17.2505 37.8321 16.9976 37.5973C16.4918 37.1095 15.9138 36.7302 15.2274 36.5496C13.7281 36.1702 12.283 36.8205 11.5966 38.1572C10.8921 39.5301 11.0004 41.3365 12.1023 42.5467C12.8249 43.3415 13.7642 43.6667 14.83 43.5583C15.7151 43.468 16.4376 43.0344 17.0699 42.4383C17.3408 42.1855 17.3047 42.1313 17.6299 42.4383C18.0092 42.7996 18.3524 43.197 18.7679 43.5402C18.9305 43.6667 18.9124 43.7389 18.7859 43.8834C17.7924 44.9673 16.5822 45.6537 15.1009 45.7982C14.9564 45.8163 14.8119 45.8343 14.6674 45.8524C14.5771 45.8524 14.4868 45.8524 14.3964 45.8524Z" fill="#0173B1"/>
<path d="M67.1608 40.9209C65.9325 40.9209 64.7041 40.9209 63.4758 40.9209C63.0965 40.9209 63.0603 40.9571 63.1687 41.3183C63.3855 42.2035 63.8732 42.8718 64.668 43.3234C65.0835 43.5583 65.5351 43.6486 66.0047 43.6847C67.197 43.775 68.2266 43.3596 69.0756 42.5467C69.2743 42.348 69.2743 42.348 69.473 42.5286C69.8523 42.8718 70.2497 43.215 70.6291 43.5583C70.7916 43.7028 70.7916 43.7389 70.6471 43.9015C69.6356 45.0395 68.3711 45.6717 66.8537 45.8162C65.8964 45.9066 64.9932 45.7982 64.09 45.473C62.7352 44.9853 61.7417 44.1002 61.0733 42.8176C60.7301 42.1493 60.5495 41.4087 60.4592 40.6681C60.3688 39.8371 60.4592 39.0243 60.6759 38.2294C60.8927 37.4166 61.272 36.694 61.8139 36.0618C62.6629 35.0322 63.7468 34.418 65.0474 34.2193C66.4202 34.0025 67.7208 34.2193 68.8949 34.996C69.7259 35.5379 70.3039 36.3147 70.7013 37.2179C71.0626 38.0669 71.2613 38.9339 71.2794 39.8552C71.2794 40.1081 71.2794 40.361 71.2794 40.5958C71.2613 40.8848 71.2432 40.9029 70.9542 40.9029C69.9968 40.9029 69.0214 40.9029 68.064 40.9029C67.7569 40.9209 67.4498 40.9209 67.1608 40.9209ZM65.8602 39.1868C65.9144 39.1868 65.9686 39.1868 66.0228 39.1868C66.8176 39.1868 67.6124 39.1868 68.4072 39.1868C68.6782 39.1868 68.6782 39.1688 68.6421 38.9159C68.5879 38.5185 68.4795 38.1391 68.2808 37.7779C67.6124 36.5134 66.4202 36.0618 65.1738 36.3869C63.8913 36.7121 63.241 37.814 63.0423 39.0062C63.0242 39.1146 63.0784 39.1688 63.1687 39.1688C63.259 39.1688 63.3313 39.1688 63.4216 39.1688C64.2526 39.1868 65.0654 39.1868 65.8602 39.1868Z" fill="#0173B1"/>
</svg>
