<svg width="80" height="65" viewBox="0 0 80 65" fill="none" xmlns="http://www.w3.org/2000/svg">
<path d="M69.2781 41.0181H45.2253C44.5778 41.0181 44.0535 41.543 44.0535 42.19C44.0535 42.8376 44.5778 43.3619 45.2253 43.3619H69.2781C69.9257 43.3619 70.45 42.8376 70.45 42.19C70.45 41.543 69.9251 41.0181 69.2781 41.0181Z" fill="#0173B1"/>
<path d="M52.093 32.4084H62.2508V29.672H55.0738V25.2709H60.6457V22.5345H55.0738V19.1824H62.0215V16.446H52.093V32.4084Z" fill="#0173B1"/>
<path d="M69.2781 47.298H45.2253C44.5778 47.298 44.0535 47.823 44.0535 48.4699C44.0535 49.1169 44.5778 49.6418 45.2253 49.6418H69.2781C69.9257 49.6418 70.45 49.1169 70.45 48.4699C70.45 47.823 69.9251 47.298 69.2781 47.298Z" fill="#0173B1"/>
<path d="M14.851 14.5197C16.3592 14.3298 17.8594 14.234 19.3108 14.234C27.3358 14.234 32.6483 17.0307 35.1007 18.6969C35.3021 18.8342 35.5316 18.9002 35.758 18.9002C36.1334 18.9002 36.502 18.7201 36.7285 18.3869C37.0923 17.8516 36.9531 17.1228 36.4178 16.7584C33.7432 14.9408 27.9632 11.8903 19.3108 11.8903C17.7624 11.8903 16.1639 11.9928 14.5592 12.1942C13.9172 12.2748 13.4618 12.8607 13.5424 13.5028C13.623 14.1449 14.2071 14.6002 14.851 14.5197Z" fill="#0173B1"/>
<path d="M14.851 22.2052C16.3592 22.0154 17.8594 21.9196 19.3108 21.9196C27.3358 21.9196 32.6483 24.7156 35.1007 26.3825C35.3021 26.5198 35.5316 26.5851 35.758 26.5851C36.1334 26.5851 36.502 26.4057 36.7285 26.0724C37.0923 25.5365 36.9531 24.8078 36.4178 24.444C33.7432 22.6258 27.9632 19.5758 19.3108 19.5758C17.7624 19.5758 16.1639 19.6778 14.5592 19.8792C13.9172 19.9604 13.4618 20.5463 13.5424 21.1884C13.623 21.8305 14.2071 22.2858 14.851 22.2052Z" fill="#0173B1"/>
<path d="M35.758 45.7058C36.1334 45.7058 36.5014 45.5264 36.7285 45.1925C37.0923 44.6573 36.9531 43.9285 36.4178 43.5647C33.7426 41.7465 27.9632 38.6965 19.3109 38.6965C17.7624 38.6965 16.1633 38.7985 14.5593 38.9999C13.9166 39.0805 13.4618 39.6664 13.5424 40.3091C13.623 40.9512 14.2071 41.4059 14.851 41.3253C16.3592 41.1361 17.8594 41.0403 19.3109 41.0403C27.3358 41.0403 32.6483 43.8363 35.1007 45.5032C35.3021 45.6405 35.531 45.7058 35.758 45.7058Z" fill="#0173B1"/>
<path d="M35.758 36.0317C36.1334 36.0317 36.5014 35.8523 36.7285 35.5184C37.0923 34.9831 36.9531 34.2544 36.4178 33.8906C33.7426 32.0723 27.9632 29.0224 19.3109 29.0224C17.7624 29.0224 16.1633 29.1243 14.5593 29.3258C13.9166 29.4063 13.4618 29.9923 13.5424 30.635C13.623 31.2771 14.2071 31.7318 14.851 31.6512C16.3592 31.462 17.8594 31.3662 19.3109 31.3662C27.3358 31.3662 32.6483 34.1622 35.1007 35.8291C35.3021 35.9664 35.531 36.0317 35.758 36.0317Z" fill="#0173B1"/>
<path d="M78.0994 13.3984H75.675V9.1223C75.675 7.85155 74.6411 6.81761 73.3704 6.81761H40.4358C39.5428 6.07664 37.0233 4.17113 32.9919 2.55553C28.4009 0.715926 20.8734 -1.08278 11.0876 0.796492C10.0476 0.996077 9.2926 1.90977 9.2926 2.96873V6.81761H6.1676C5.15137 6.81761 4.32495 7.64464 4.32495 8.66026V13.3984H1.90063C0.852661 13.3984 0 14.2511 0 15.2991V60.7935C0 61.8414 0.852661 62.6947 1.90063 62.6947H33.0743C33.2794 62.6947 33.4747 62.7924 33.5968 62.9571C34.1595 63.7128 35.0574 64.1644 35.9998 64.1644H44.0002C44.942 64.1644 45.8405 63.7128 46.4032 62.9571C46.5253 62.793 46.7212 62.6947 46.9257 62.6947H78.0994C79.1473 62.6947 80 61.8414 80 60.7935V15.2991C80 14.2511 79.1473 13.3984 78.0994 13.3984ZM41.1719 9.16136H73.3313V56.2659H41.1719V9.16136ZM11.6364 3.07799C20.7562 1.35008 27.7478 2.99742 32.0129 4.68809C35.6396 6.12608 37.9681 7.83812 38.8281 8.53209V55.0702C35.7379 52.9718 29.0887 49.4403 19.3347 49.4403C16.9519 49.4403 14.3823 49.6515 11.6364 50.1453V3.07799ZM6.6687 9.16136H9.2926V50.3058C9.2926 50.9637 9.58252 51.5832 10.0885 52.005C10.5933 52.4249 11.2518 52.5983 11.897 52.4799C20.9338 50.8221 27.8607 52.4811 32.0801 54.165C33.8135 54.8572 35.2374 55.6012 36.3452 56.2653H6.6687V9.16136ZM77.6562 60.3509H46.9257C45.9839 60.3509 45.0854 60.802 44.5227 61.5576C44.4006 61.7224 44.2047 61.8207 44.0002 61.8207H35.9998C35.7947 61.8207 35.5994 61.7224 35.4773 61.5582C34.9146 60.802 34.0161 60.3509 33.0743 60.3509H2.34375V15.7422H4.32495V56.767C4.32495 57.7826 5.15198 58.6096 6.1676 58.6096H73.3704C74.6411 58.6096 75.675 57.5757 75.675 56.3043V15.7422H77.6562V60.3509Z" fill="#0173B1"/>
</svg>
