<svg width="81" height="80" viewBox="0 0 81 80" fill="none" xmlns="http://www.w3.org/2000/svg">
<path d="M78.7259 13.4893L41.4059 0.156003C40.8166 -0.0520012 40.1738 -0.0520012 39.5845 0.156003L2.27386 13.4893C1.21636 13.8705 0.511459 14.8739 0.511459 15.998C0.511459 17.1221 1.21636 18.1255 2.27386 18.5067L20.5005 25.0187V33.332C20.5005 38.516 38.4539 38.6653 40.5005 38.6653C42.5472 38.6653 60.5005 38.516 60.5005 33.332V25.0187L64.5005 23.5987V26.6653C64.5005 28.1381 65.6944 29.332 67.1672 29.332H69.8339C71.3066 29.332 72.5005 28.1381 72.5005 26.6653V22.6653C72.4966 22.0479 72.3477 21.44 72.0658 20.8907L78.7325 18.5067C79.79 18.1255 80.4949 17.1221 80.4949 15.998C80.4949 14.8739 79.79 13.8705 78.7325 13.4893H78.7259ZM57.8339 30.3987C52.7552 28.0867 42.0539 27.9987 40.5005 27.9987C38.9472 27.9987 28.2459 28.0867 23.1672 30.3987V18.7827C23.9672 17.756 30.2552 15.9987 40.5005 15.9987C50.7459 15.9987 57.0339 17.756 57.8339 18.7827V30.3987ZM40.5005 35.9987C30.6339 35.9987 24.4379 34.3693 23.2792 33.332C24.4379 32.2947 30.6365 30.6653 40.5005 30.6653C50.3645 30.6653 56.5632 32.2947 57.7219 33.332C56.5632 34.3693 50.3672 35.9987 40.5005 35.9987ZM65.1259 20.5387L60.5005 22.188V18.6653C60.5005 13.4813 42.5472 13.332 40.5005 13.332C38.4539 13.332 20.5005 13.4813 20.5005 18.6653V22.1867L3.16719 15.9987L40.5192 2.66534L67.1672 12.188V18.9107C66.3241 19.2103 65.6055 19.7834 65.1259 20.5387ZM69.8339 26.6653H67.1672V22.6653C67.1672 21.929 67.7641 21.332 68.5005 21.332C69.2369 21.332 69.8339 21.929 69.8339 22.6653V26.6653ZM69.8339 18.8573V13.1413L77.8339 15.9987L69.8339 18.8573Z" fill="#0173B1"/>
<path d="M76.5 41.3318C76.42 41.3316 76.3401 41.3387 76.2613 41.3532C64.4311 43.1924 52.4721 44.077 40.5 43.9985C28.5279 44.077 16.5689 43.1924 4.73867 41.3532C4.65981 41.3397 4.58 41.3326 4.5 41.3318C3.56667 41.3318 0.5 42.3892 0.5 55.9985C0.5 69.6078 3.56667 70.6652 4.5 70.6652C4.58006 70.6635 4.65987 70.6554 4.73867 70.6412C13.8289 69.2013 23.0045 68.3648 32.2053 68.1372L29.6027 74.3798C29.2028 75.3794 29.4459 76.5215 30.2182 77.2716C30.9905 78.0217 32.1392 78.2313 33.1267 77.8025L34.1467 77.3665L34.588 78.3812C35.0049 79.365 35.9715 80.0026 37.04 79.9985H37.0733C38.1499 79.9901 39.1149 79.333 39.5173 78.3345L41.8333 72.7905L44.1413 78.3132C44.5402 79.3211 45.5094 79.9873 46.5933 79.9985H46.6333C47.6946 80.0029 48.656 79.3731 49.076 78.3985L49.5213 77.3758L50.5253 77.8065C51.5171 78.2443 52.6754 78.0357 53.4522 77.2795C54.2289 76.5233 54.4684 75.371 54.0573 74.3678L51.5053 68.2478C59.8008 68.5415 68.0705 69.343 76.268 70.6478C76.3447 70.6605 76.4223 70.6663 76.5 70.6652C77.4333 70.6652 80.5 69.6078 80.5 55.9985C80.5 42.3892 77.4333 41.3318 76.5 41.3318ZM44.7667 46.6252C45.3204 48.6611 45.6429 50.753 45.728 52.8612C42.7048 51.4554 39.159 51.785 36.4467 53.7238C36.3785 51.3295 36.0716 48.9479 35.5307 46.6145C37.1458 46.6483 38.8022 46.6652 40.5 46.6652C41.9573 46.6652 43.372 46.6492 44.7667 46.6252ZM41.8333 67.9985C38.1514 67.9985 35.1667 65.0137 35.1667 61.3318C35.1667 57.6499 38.1514 54.6652 41.8333 54.6652C45.5152 54.6652 48.5 57.6499 48.5 61.3318C48.4956 65.0119 45.5134 67.9941 41.8333 67.9985ZM4.5 44.6652C5.52162 48.3525 5.9713 52.1748 5.83333 55.9985C5.9713 59.8222 5.52162 63.6445 4.5 67.3318C3.47838 63.6445 3.0287 59.8222 3.16667 55.9985C3.0287 52.1748 3.47838 48.3525 4.5 44.6652ZM7.19333 67.5585C7.92267 65.4438 8.5 61.9052 8.5 55.9985C8.5 50.0918 7.92267 46.5532 7.192 44.4358C15.6648 45.606 24.1954 46.3106 32.7453 46.5465C33.545 49.6314 33.9112 52.8126 33.8333 55.9985C33.8333 56.1918 33.8333 56.3758 33.8253 56.5612C32.2253 59.2166 32.0641 62.4976 33.396 65.2972L33.3373 65.4385C24.5896 65.6529 15.861 66.3616 7.19333 67.5612V67.5585ZM37.0427 77.3318L36.0693 75.0918C35.7766 74.4192 34.9955 74.1094 34.3213 74.3985L32.0773 75.3905L35.204 67.8945C36.4877 69.1953 38.1253 70.0901 39.9133 70.4678L37.0427 77.3318ZM49.3453 74.3985C48.6711 74.1094 47.8901 74.4192 47.5973 75.0918L46.6107 77.3092L43.752 70.4652C45.5414 70.0873 47.1804 69.192 48.4653 67.8905L51.5853 75.3572L49.3453 74.3985ZM76.2333 67.9318C67.6671 66.6134 59.0292 65.812 50.3667 65.5318L50.272 65.3025C51.9488 61.7691 51.2299 57.5636 48.4747 54.7878C48.4643 52.0227 48.145 49.2674 47.5227 46.5732C57.137 46.3579 66.7274 45.5197 76.2333 44.0638C76.852 45.1145 77.8333 49.2705 77.8333 55.9985C77.8333 62.7265 76.8453 66.8812 76.2333 67.9318Z" fill="#0173B1"/>
</svg>
