<svg width="81" height="65" viewBox="0 0 81 65" fill="none" xmlns="http://www.w3.org/2000/svg">
<path d="M63.2777 13.8589H17.7224C17.0746 13.8589 16.5496 14.3839 16.5496 15.0317C16.5496 15.6795 17.0746 16.2045 17.7224 16.2045H63.2777C63.9255 16.2045 64.4505 15.6795 64.4505 15.0317C64.4505 14.3839 63.9255 13.8589 63.2777 13.8589Z" fill="#0173B1"/>
<path d="M63.2777 26.6292H17.7224C17.0746 26.6292 16.5496 27.1542 16.5496 27.802C16.5496 28.4496 17.0746 28.9748 17.7224 28.9748H63.2777C63.9255 28.9748 64.4505 28.4498 64.4505 27.802C64.4505 27.1542 63.9255 26.6292 63.2777 26.6292Z" fill="#0173B1"/>
<path d="M48.3426 34.9162H32.6573C32.0095 34.9162 31.4845 35.4412 31.4845 36.089C31.4845 36.7366 32.0095 37.2618 32.6573 37.2618H48.3426C48.9904 37.2618 49.5154 36.7368 49.5154 36.089C49.5154 35.4412 48.9904 34.9162 48.3426 34.9162Z" fill="#0173B1"/>
<path d="M63.2777 20.218H29.2974C28.6496 20.218 28.1246 20.743 28.1246 21.3908C28.1246 22.0385 28.6496 22.5637 29.2974 22.5637H63.2777C63.9255 22.5637 64.4505 22.0387 64.4505 21.3908C64.4505 20.743 63.9255 20.218 63.2777 20.218Z" fill="#0173B1"/>
<path d="M23.8408 20.2177H17.7224C17.0746 20.2177 16.5496 20.7427 16.5496 21.3905C16.5496 22.0383 17.0746 22.5633 17.7224 22.5633H23.8408C24.4886 22.5633 25.0136 22.0383 25.0136 21.3905C25.0136 20.7429 24.4886 20.2177 23.8408 20.2177Z" fill="#0173B1"/>
<path d="M74.4454 11.8768C74.1726 11.6089 73.8115 11.4614 73.4264 11.4614C73.426 11.4614 73.4259 11.4614 73.4256 11.4614C71.0485 11.4614 69.1031 9.60324 68.996 7.23043C68.9609 6.45886 68.3268 5.85465 67.5526 5.85465H13.1682C12.3939 5.85465 11.7596 6.45902 11.7246 7.23121C11.6226 9.49855 9.76651 11.3548 7.49901 11.4568C6.72713 11.4915 6.1226 12.1257 6.1226 12.9004V43.2162C6.1226 43.9909 6.72713 44.625 7.49901 44.6596C9.76651 44.7618 11.6226 46.6179 11.7246 48.886C11.7598 49.6576 12.394 50.2618 13.1682 50.2618H47.7896C48.4375 50.2618 48.9624 49.7368 48.9624 49.089C48.9624 48.4414 48.4375 47.9162 47.7896 47.9162H13.9748C13.4899 45.0914 11.2929 42.8943 8.46807 42.4093V13.7068C11.2929 13.222 13.4899 11.0245 13.9748 8.20011H66.7465C67.2512 11.1142 69.5973 13.3636 72.5318 13.7486V33.6656C72.5318 34.3132 73.0568 34.8384 73.7046 34.8384C74.3524 34.8384 74.8774 34.3134 74.8774 33.6656V12.907C74.8774 12.5165 74.724 12.1506 74.4454 11.8768Z" fill="#0173B1"/>
<path d="M77.2445 0H3.75547C1.96047 0 0.5 1.46047 0.5 3.25547V52.8602C0.5 54.6553 1.96047 56.1156 3.75547 56.1156H52.9817L51.2389 59.7677C51.015 60.2366 51.0695 60.7864 51.3808 61.2024C51.6922 61.6184 52.2045 61.8252 52.7172 61.7431L55.9619 61.2216L57.7717 64.1923C58.0255 64.6092 58.4764 64.8608 58.9609 64.8608C58.9845 64.8608 59.0083 64.8602 59.032 64.8589C59.5433 64.833 59.9978 64.5298 60.2186 64.0677L63.3633 57.4781L66.5077 64.0672C66.728 64.5294 67.1825 64.8328 67.6939 64.8591C67.7178 64.8603 67.7419 64.8609 67.7656 64.8609C68.2502 64.8609 68.7011 64.6094 68.9548 64.1927L70.7647 61.2219L74.0094 61.7436C74.5236 61.8258 75.035 61.6184 75.3461 61.2022C75.6573 60.7859 75.7114 60.2363 75.4875 59.7681L73.7447 56.1161H77.2445C79.0395 56.1161 80.5 54.6558 80.5 52.8606V3.25547C80.5 1.46047 79.0395 0 77.2445 0ZM58.8595 61.4695L57.6319 59.4547C57.3363 58.9694 56.7828 58.7141 56.2212 58.8042L54.1378 59.1392L56.3325 54.5405C57.1975 55.4231 58.4298 55.9 59.7091 55.7795C60.1464 55.7377 60.5848 55.8555 60.9431 56.11C61.0613 56.1941 61.1839 56.2686 61.3081 56.3389L58.8595 61.4695ZM63.643 54.5152C63.6394 54.5156 63.6358 54.5159 63.632 54.5166C63.4542 54.5428 63.2734 54.5428 63.0956 54.5167C63.0911 54.5161 63.0866 54.5156 63.0822 54.515C62.8067 54.4723 62.5389 54.3669 62.3017 54.1983C61.5924 53.6939 60.7453 53.4258 59.8813 53.4258C59.7503 53.4258 59.6191 53.432 59.4878 53.4444C58.7114 53.5177 57.9737 53.0913 57.6497 52.3831C57.5058 52.0688 57.3222 51.7778 57.1091 51.5117C57.0997 51.4984 57.0894 51.4859 57.0795 51.4731C57.0677 51.4587 57.0566 51.4439 57.0447 51.4297C57.0311 51.4138 57.0169 51.3986 57.0023 51.3834C56.6145 50.9372 56.1353 50.5728 55.5895 50.3231C54.8813 49.9991 54.4548 49.2603 54.5283 48.4848C54.6227 47.487 54.355 46.4877 53.7744 45.6709C53.323 45.0361 53.323 44.1831 53.7742 43.5483C54.355 42.7316 54.6227 41.7322 54.5283 40.7344C54.4548 39.9589 54.8814 39.2202 55.5895 38.8961C56.5009 38.4791 57.2325 37.7475 57.6495 36.8361C57.9737 36.1278 58.7141 35.7013 59.4878 35.7748C60.4867 35.8691 61.4852 35.6014 62.3019 35.0208C62.9369 34.5695 63.7898 34.5695 64.4245 35.0208C65.2414 35.6014 66.24 35.8684 67.2386 35.7748C68.0147 35.7011 68.753 36.128 69.077 36.8361C69.4941 37.7475 70.2256 38.4791 71.1369 38.8959C71.8452 39.2202 72.2717 39.9589 72.1983 40.7342C72.1039 41.7322 72.3716 42.7316 72.9522 43.5481C73.4036 44.183 73.4036 45.0359 72.9522 45.6708C72.3716 46.4877 72.1039 47.487 72.1983 48.4847C72.2717 49.2602 71.8452 49.9989 71.1367 50.3231C70.5922 50.5723 70.1141 50.9358 69.7267 51.3806C69.7108 51.3972 69.6952 51.4139 69.6805 51.4313C69.6703 51.4434 69.6608 51.4561 69.6506 51.4684C69.6389 51.4834 69.627 51.4981 69.6161 51.5136C69.4036 51.7792 69.2205 52.0695 69.077 52.3831C68.7528 53.0913 68.0141 53.518 67.2386 53.4444C66.2417 53.3505 65.2417 53.6177 64.4245 54.1983C64.187 54.367 63.9189 54.4727 63.643 54.5152ZM70.5052 58.8041C69.9434 58.7142 69.3903 58.9694 69.0945 59.4548L67.867 61.4697L65.4184 56.3389C65.5427 56.2686 65.6652 56.1941 65.7834 56.11C66.1419 55.8553 66.5806 55.7372 67.0175 55.7794C68.2972 55.9 69.5292 55.4231 70.3942 54.5405L72.5888 59.1391L70.5052 58.8041ZM78.1545 52.8603C78.1545 53.362 77.7464 53.7703 77.2445 53.7703H72.6253L72.0206 52.5031C72.0511 52.487 72.0814 52.4702 72.113 52.4558C73.728 51.7166 74.7006 50.0319 74.5333 48.2638C74.4919 47.8263 74.6092 47.388 74.8639 47.0297C75.893 45.582 75.893 43.6367 74.8637 42.1891C74.6092 41.8309 74.4919 41.3928 74.5333 40.9552C74.7006 39.187 73.728 37.5023 72.1128 36.7631C71.7133 36.5802 71.3925 36.2594 71.2095 35.8598C70.4705 34.2447 68.785 33.2723 67.0173 33.4395C66.5795 33.4813 66.1416 33.3636 65.7834 33.1089C64.3358 32.0798 62.3903 32.0797 60.9428 33.1089C60.5845 33.3636 60.1453 33.4813 59.7089 33.4394C57.9386 33.2728 56.2558 34.2447 55.5169 35.8597C55.3339 36.2594 55.0131 36.58 54.6134 36.763C52.9984 37.5022 52.0258 39.1867 52.1931 40.955C52.2345 41.3927 52.1172 41.8308 51.8625 42.1891C50.8334 43.6367 50.8334 45.582 51.8625 47.0295C52.1172 47.3877 52.2345 47.8259 52.1931 48.2636C52.0258 50.0319 52.9984 51.7166 54.6134 52.4556C54.645 52.47 54.6752 52.4869 54.7056 52.503L54.1009 53.7703H3.75547C3.25375 53.7703 2.84547 53.3622 2.84547 52.8603V3.25547C2.84547 2.75375 3.25359 2.34547 3.75547 2.34547H77.2445C77.7463 2.34547 78.1545 2.75375 78.1545 3.25547V52.8603Z" fill="#0173B1"/>
<path fill-rule="evenodd" clip-rule="evenodd" d="M63.3493 49.5813C66.2435 49.5813 68.5898 47.2351 68.5898 44.3408C68.5898 41.4466 66.2435 39.1003 63.3493 39.1003C60.455 39.1003 58.1088 41.4466 58.1088 44.3408C58.1088 47.2351 60.455 49.5813 63.3493 49.5813ZM63.3493 51.4869C67.296 51.4869 70.4954 48.2875 70.4954 44.3408C70.4954 40.3941 67.296 37.1947 63.3493 37.1947C59.4026 37.1947 56.2032 40.3941 56.2032 44.3408C56.2032 48.2875 59.4026 51.4869 63.3493 51.4869Z" fill="#0173B1"/>
<path fill-rule="evenodd" clip-rule="evenodd" d="M63.9805 48.588C64.4418 47.5995 64.7785 46.0999 64.7785 44.3408C64.7785 42.5817 64.4418 41.0821 63.9805 40.0936C63.7 39.4925 63.4683 39.2489 63.3493 39.153C63.2303 39.2489 62.9986 39.4925 62.718 40.0936C62.2567 41.0821 61.92 42.5817 61.92 44.3408C61.92 46.0999 62.2567 47.5995 62.718 48.588C62.9986 49.1892 63.2303 49.4328 63.3493 49.5286C63.4683 49.4328 63.7 49.1892 63.9805 48.588ZM63.3493 51.4869C65.1911 51.4869 66.6841 48.2875 66.6841 44.3408C66.6841 40.3941 65.1911 37.1947 63.3493 37.1947C61.5075 37.1947 60.0144 40.3941 60.0144 44.3408C60.0144 48.2875 61.5075 51.4869 63.3493 51.4869Z" fill="#0173B1"/>
<path fill-rule="evenodd" clip-rule="evenodd" d="M69.7809 45.2937H57.156V43.388H69.7809V45.2937Z" fill="#0173B1"/>
</svg>
