<svg width="81" height="75" viewBox="0 0 81 75" fill="none" xmlns="http://www.w3.org/2000/svg">
<path d="M45.6652 27.1183H44.6889C44.6259 26.945 44.5471 26.7561 44.4684 26.5828L45.1613 25.8899C46.1692 24.882 46.1692 23.2442 45.1613 22.2364L41.5078 18.5828C40.4999 17.5749 38.8621 17.5749 37.8542 18.5828L37.1613 19.2757C36.9881 19.197 36.7991 19.1183 36.6259 19.0553V18.0789C36.6259 16.6616 35.4605 15.4962 34.0432 15.4962H28.8778C27.4605 15.4962 26.2952 16.6458 26.2952 18.0789V19.0553C26.1219 19.1183 25.933 19.197 25.7597 19.2757L25.0668 18.5828C24.0589 17.5749 22.4211 17.5749 21.4133 18.5828L17.7597 22.2364C16.7519 23.2442 16.7519 24.882 17.7597 25.8899L18.4684 26.5828C18.3897 26.7561 18.3109 26.945 18.2479 27.1183H17.2715C15.8542 27.1183 14.6889 28.2679 14.6889 29.7009V34.8663C14.6889 36.2836 15.8542 37.449 17.2715 37.449H18.2479C18.3109 37.6222 18.3897 37.8112 18.4684 37.9844L17.7755 38.6773C16.7676 39.6852 16.7676 41.323 17.7755 42.3309L21.429 45.9844C22.4369 46.9923 24.0747 46.9923 25.0826 45.9844L25.7755 45.2915C25.9487 45.3702 26.1377 45.449 26.3109 45.512V46.4883C26.3109 47.9057 27.4763 49.071 28.8936 49.071H34.0432C35.4605 49.071 36.6259 47.9214 36.6259 46.4883V45.512C36.7991 45.449 36.9881 45.3702 37.1613 45.2915L37.8542 45.9844C38.8621 46.9923 40.4999 46.9923 41.5078 45.9844L45.1613 42.3309C46.1692 41.323 46.1692 39.6852 45.1613 38.6773L44.4684 37.9844C44.5471 37.8112 44.6259 37.6222 44.6889 37.449H45.6652C47.0826 37.449 48.2479 36.2994 48.2479 34.8663V29.7009C48.2479 28.2836 47.0826 27.1183 45.6652 27.1183ZM45.6495 34.8505H42.8148L42.5314 35.7482C42.3424 36.3781 42.0747 37.008 41.744 37.6222L41.303 38.4568L43.303 40.4568L39.6495 44.1104L37.6652 42.1261L36.8306 42.5671C36.2007 42.8978 35.5708 43.1498 34.9566 43.3545L34.0589 43.6379V46.4726H28.8936V43.6379L27.996 43.3545C27.366 43.1655 26.7361 42.8978 26.1219 42.5671L25.2873 42.1261L23.2715 44.1419L19.618 40.4883L21.618 38.4883L21.1771 37.6537C20.8463 37.0238 20.5786 36.3939 20.3897 35.7797L20.1062 34.882H17.2715V29.7167H20.1062L20.3897 28.819C20.5786 28.1891 20.8463 27.5592 21.1771 26.945L21.618 26.1104L19.618 24.1104L23.2558 20.4096L25.2558 22.4253L26.0904 21.9844C26.7204 21.6537 27.3503 21.4017 27.9645 21.197L28.8621 20.9135V18.0789H34.0432V20.9135L34.9408 21.197C35.5708 21.386 36.2007 21.6537 36.8148 21.9844L37.6495 22.4253L39.6495 20.4253L43.303 24.0789L41.303 26.0789L41.744 26.9135C42.0747 27.5435 42.3424 28.1734 42.5314 28.7875L42.8148 29.6852H45.6495V34.8505Z" fill="#0173B1"/>
<path d="M31.4604 23.2283C26.4682 23.2283 22.421 27.2756 22.421 32.2677C22.421 37.2598 26.484 41.3071 31.4604 41.3071C36.4367 41.3071 40.4997 37.2598 40.4997 32.2677C40.4997 27.2756 36.4525 23.2283 31.4604 23.2283ZM31.4604 38.7402C27.9013 38.7402 25.0037 35.8425 25.0037 32.2835C25.0037 28.7244 27.9171 25.8268 31.4604 25.8268C35.0194 25.8268 37.9171 28.7244 37.9171 32.2835C37.9171 35.8425 35.0194 38.7402 31.4604 38.7402Z" fill="#0173B1"/>
<path d="M54.6889 6.45673C51.8385 6.45673 49.5236 8.77169 49.5236 11.6221C49.5236 14.4725 51.8543 16.7874 54.6889 16.7874C57.5393 16.7874 59.8543 14.4725 59.8543 11.6221C59.8543 8.77169 57.5393 6.45673 54.6889 6.45673ZM54.6889 14.2048C53.2716 14.2048 52.1063 13.0552 52.1063 11.6221C52.1063 10.189 53.2716 9.03941 54.6889 9.03941C56.1063 9.03941 57.2716 10.189 57.2716 11.6221C57.2716 13.0552 56.1063 14.2048 54.6889 14.2048Z" fill="#0173B1"/>
<path d="M66.311 10.3307V9.90551C66.311 8.72441 65.3504 7.74803 64.1535 7.74803H64.0276L64.122 7.66929C64.5315 7.25984 64.752 6.72441 64.752 6.14173C64.752 5.55906 64.5315 5.02362 64.122 4.61417L61.6968 2.18898C60.878 1.37008 59.4606 1.37008 58.6575 2.18898L58.5787 2.26772V2.15748C58.5787 0.976378 57.6181 0 56.4213 0H52.9882C51.8071 0 50.8307 0.96063 50.8307 2.15748V2.26772L50.752 2.18898C50.3425 1.77953 49.8071 1.55906 49.2402 1.55906C48.6732 1.55906 48.122 1.77953 47.7126 2.18898L45.2716 4.61417C44.8622 5.02362 44.6417 5.55906 44.6417 6.14173C44.6417 6.72441 44.8622 7.25984 45.2716 7.66929L45.3504 7.74803H45.2244C44.0433 7.74803 43.0669 8.70866 43.0669 9.90551V10.3307H0.5V64.5197H25.0197V72.2677H14.689V74.8504H66.2795V72.2677H55.9646V64.5197H80.5V10.3307H66.311ZM45.6654 10.3307H47.4291L47.7126 9.43307C47.8386 9.03937 47.9961 8.64567 48.2008 8.25197L48.6417 7.41732L47.3976 6.15748L49.2244 4.33071L50.4843 5.59055L51.3189 5.14961C51.7126 4.94488 52.1063 4.77165 52.5 4.66142L53.3976 4.37795V2.59843H55.9803V4.36221L56.878 4.64567C57.2717 4.77165 57.6654 4.92913 58.0591 5.13386L58.8937 5.5748L60.1535 4.31496L61.9803 6.14173L60.7205 7.40158L61.1614 8.23622C61.3661 8.62992 61.5394 9.02362 61.6496 9.41732L61.9331 10.315H63.7126V12.8976H61.9331L61.6496 13.7953C61.5236 14.189 61.3661 14.5827 61.1614 14.9764L60.7205 15.811L61.9803 17.0709L60.1535 18.8976L58.8937 17.6378L58.0591 18.0787C57.6654 18.2835 57.2717 18.4567 56.878 18.5669L55.9803 18.8504V20.6299H53.3976V18.8504L52.5 18.5669C52.1063 18.4409 51.7126 18.2835 51.3189 18.0787L50.4843 17.6378L49.2244 18.8976L47.3976 17.0709L48.6575 15.811L48.2165 14.9764C48.0118 14.5827 47.8386 14.189 47.7283 13.7953L47.4449 12.8976H45.6654V10.3307ZM53.4134 72.2677H27.6024V64.5197H53.4134V72.2677ZM77.9173 61.9528H3.08268V54.2047H77.9173V61.9528ZM77.9173 51.6378H3.08268V12.9134H43.0827V13.3386C43.0827 14.5197 44.0433 15.4961 45.2402 15.4961H45.3504L45.2716 15.5748C44.8622 15.9843 44.6417 16.5197 44.6417 17.1024C44.6417 17.685 44.8622 18.2205 45.2716 18.6299L47.7126 21.0709C48.5315 21.874 49.9488 21.874 50.752 21.0709L50.8307 20.9921V21.1024C50.8307 22.2835 51.7913 23.2598 52.9882 23.2598H56.4213C57.6024 23.2598 58.5787 22.2992 58.5787 21.1024V20.9921L58.6575 21.0709C59.4764 21.8898 60.8937 21.8898 61.6968 21.0709L64.122 18.6457C64.5315 18.2362 64.752 17.7008 64.752 17.1181C64.752 16.5512 64.5315 16 64.122 15.5906L64.0433 15.5118H64.1535C65.3346 15.5118 66.311 14.5512 66.311 13.3543V12.9291H77.9173V51.6378Z" fill="#0173B1"/>
<path d="M41.7914 56.7874H39.2087V59.3701H41.7914V56.7874Z" fill="#0173B1"/>
<path d="M46.9566 56.7874H44.3739V59.3701H46.9566V56.7874Z" fill="#0173B1"/>
<path d="M36.6261 56.7874H34.0435V59.3701H36.6261V56.7874Z" fill="#0173B1"/>
<path d="M15.9961 16.7875H6.95673V19.3701H15.9961V16.7875Z" fill="#0173B1"/>
<path d="M12.1221 21.9529H6.95673V24.5356H12.1221V21.9529Z" fill="#0173B1"/>
<path d="M72.7679 45.1813H63.7285V47.764H72.7679V45.1813Z" fill="#0173B1"/>
<path d="M72.7676 40.0158H67.6023V42.5985H72.7676V40.0158Z" fill="#0173B1"/>
</svg>
