<svg width="80" height="74" viewBox="0 0 80 74" fill="none" xmlns="http://www.w3.org/2000/svg">
<path d="M78.8258 71.3894H76.2426V38.6692H78.8258C79.2543 38.6692 79.6488 38.4358 79.8552 38.0601C80.0613 37.6844 80.0465 37.2261 79.8165 36.8646L71.0494 23.0877C70.8338 22.7489 70.4603 22.5439 70.0587 22.5439H46.7485L41.1742 16.9697V12.3679H52.5245C52.9575 12.3679 53.3555 12.1296 53.5598 11.7478C53.7641 11.3661 53.7417 10.9027 53.5014 10.5425L51.4308 7.43639L53.5015 4.33033C53.7418 3.97009 53.7641 3.50669 53.5599 3.12501C53.3555 2.74317 52.9575 2.50489 52.5245 2.50489H41.1742V1.17417C41.1742 0.525714 40.6485 0 40 0C39.3515 0 38.8258 0.525714 38.8258 1.17417V16.9697L33.2515 22.544H9.94131C9.5399 22.544 9.16621 22.7491 8.95063 23.0879L0.183512 36.8648C-0.0464681 37.2263 -0.0613409 37.6845 0.144843 38.0602C0.351183 38.4358 0.745704 38.6692 1.1742 38.6692H3.75736V71.3894H1.1742C0.525743 71.3894 2.89227e-05 71.9151 2.89227e-05 72.5635C2.89227e-05 73.212 0.525743 73.7377 1.1742 73.7377H78.8258C79.4743 73.7377 80 73.212 80 72.5635C80 71.9151 79.4743 71.3894 78.8258 71.3894ZM69.4141 24.8923L76.6869 36.3209H60.5254L49.0968 24.8923H69.4141ZM50.3305 4.85322L49.0425 6.78512C48.7795 7.17949 48.7795 7.6933 49.0425 8.08767L50.3305 10.0196H41.1742V4.85322H50.3305ZM10.5859 24.8923H30.903L19.4745 36.3209H3.31322L10.5859 24.8923ZM6.1057 38.6692H19.9606C19.9994 38.6692 20.0382 38.6672 20.077 38.6633C20.0936 38.6617 20.1099 38.6586 20.1264 38.6562C20.1478 38.6531 20.1693 38.6506 20.1907 38.6464C20.2098 38.6426 20.2283 38.6373 20.2471 38.6326C20.2654 38.6281 20.2838 38.6238 20.302 38.6185C20.3205 38.6129 20.3385 38.6058 20.3566 38.5994C20.3747 38.593 20.3927 38.5871 20.4105 38.5797C20.4276 38.5727 20.4438 38.5644 20.4604 38.5565C20.4784 38.5479 20.4968 38.5399 20.5145 38.5304C20.5306 38.5218 20.5458 38.5119 20.5614 38.5027C20.5786 38.4925 20.5962 38.4826 20.6129 38.4714C20.6305 38.4596 20.6469 38.4466 20.6637 38.4339C20.6774 38.4236 20.6917 38.4141 20.705 38.4029C20.735 38.3784 20.7638 38.3524 20.7912 38.3248L40 19.1164L59.2088 38.325C59.2362 38.3524 59.2651 38.3784 59.295 38.4031C59.3083 38.4141 59.3224 38.4236 59.3362 38.4339C59.3531 38.4466 59.3697 38.4598 59.3872 38.4715C59.4038 38.4826 59.4212 38.4923 59.4383 38.5025C59.4541 38.5121 59.4694 38.5219 59.4857 38.5305C59.5032 38.5399 59.5212 38.5479 59.5392 38.5564C59.556 38.5644 59.5726 38.5726 59.5898 38.5798C59.6073 38.5871 59.6252 38.5928 59.6429 38.5993C59.6612 38.6058 59.6794 38.6129 59.6981 38.6187C59.716 38.6242 59.7342 38.6281 59.7522 38.6326C59.7713 38.6375 59.79 38.6428 59.8095 38.6465C59.8301 38.6506 59.8509 38.6531 59.8718 38.6561C59.8888 38.6586 59.9057 38.6617 59.9231 38.6635C59.9616 38.6672 60.0003 38.6692 60.039 38.6692H73.8943V71.3894H48.6888V55.0293C48.6888 53.0007 47.0384 51.3503 45.0098 51.3503H34.9902C32.9616 51.3503 31.3112 53.0007 31.3112 55.0293V71.3894H6.1057V38.6692ZM46.3405 56.36H33.6595V55.0293C33.6595 54.2955 34.2564 53.6986 34.9902 53.6986H45.0098C45.7436 53.6986 46.3405 54.2955 46.3405 55.0293V56.36ZM33.6595 58.7084H38.8258V71.3894H33.6595V58.7084ZM41.1742 58.7084H46.3405V71.3894H41.1742V58.7084Z" fill="#0173B1"/>
<path d="M27.4758 57.6125H21.2136C20.5651 57.6125 20.0394 58.1382 20.0394 58.7867V66.3014C20.0394 66.9498 20.5651 67.4755 21.2136 67.4755H27.4758C28.1243 67.4755 28.65 66.9498 28.65 66.3014V58.7867C28.65 58.1382 28.1243 57.6125 27.4758 57.6125ZM26.3016 59.9609V61.3699H22.3877V59.9609H26.3016ZM22.3877 65.1272V63.7182H26.3016V65.1272H22.3877Z" fill="#0173B1"/>
<path d="M16.2033 57.6125H9.94109C9.29264 57.6125 8.76692 58.1382 8.76692 58.7867V66.3014C8.76692 66.9498 9.29264 67.4755 9.94109 67.4755H16.2033C16.8518 67.4755 17.3775 66.9498 17.3775 66.3014V58.7867C17.3775 58.1382 16.8518 57.6125 16.2033 57.6125ZM15.0292 59.9609V61.3699H11.1153V59.9609H15.0292ZM11.1153 65.1272V63.7182H15.0292V65.1272H11.1153Z" fill="#0173B1"/>
<path d="M15.8119 42.5832H10.3325C9.46923 42.5832 8.76692 43.2855 8.76692 44.1488V52.5245C8.76692 53.1729 9.29264 53.6986 9.94109 53.6986H16.2033C16.8518 53.6986 17.3775 53.1729 17.3775 52.5245V44.1488C17.3775 43.2855 16.6752 42.5832 15.8119 42.5832ZM15.0292 44.9315V47.593H11.1153V44.9315H15.0292ZM11.1153 51.3503V49.9413H15.0292V51.3503H11.1153Z" fill="#0173B1"/>
<path d="M63.7963 67.4755H70.0586C70.707 67.4755 71.2327 66.9498 71.2327 66.3014V58.7867C71.2327 58.1382 70.707 57.6125 70.0586 57.6125H63.7963C63.1479 57.6125 62.6222 58.1382 62.6222 58.7867V66.3014C62.6222 66.9498 63.1479 67.4755 63.7963 67.4755ZM64.9705 65.1272V63.7182H68.8844V65.1272H64.9705ZM68.8844 59.9609V61.3699H64.9705V59.9609H68.8844Z" fill="#0173B1"/>
<path d="M52.5243 67.4755H58.7865C59.435 67.4755 59.9607 66.9498 59.9607 66.3014V58.7867C59.9607 58.1382 59.435 57.6125 58.7865 57.6125H52.5243C51.8759 57.6125 51.3502 58.1382 51.3502 58.7867V66.3014C51.3502 66.9498 51.8759 67.4755 52.5243 67.4755ZM53.6985 65.1272V63.7182H57.6124V65.1272H53.6985ZM57.6124 59.9609V61.3699H53.6985V59.9609H57.6124Z" fill="#0173B1"/>
<path d="M63.7963 53.6986H70.0586C70.707 53.6986 71.2327 53.1729 71.2327 52.5245V44.1488C71.2327 43.2855 70.5304 42.5832 69.6672 42.5832H64.1877C63.3245 42.5832 62.6222 43.2855 62.6222 44.1488V52.5245C62.6222 53.1729 63.1479 53.6986 63.7963 53.6986ZM64.9705 51.3503V49.9413H68.8844V51.3503H64.9705ZM68.8844 44.9315V47.593H64.9705V44.9315H68.8844Z" fill="#0173B1"/>
<path d="M28.8333 46.7951H31.5707L33.2742 43.8172L34.9778 46.7951H37.7151L34.6284 41.4349L37.322 36.8689H34.6429L33.2742 39.2228L31.9056 36.8689H29.2265L31.9492 41.4349L28.8333 46.7951Z" fill="#0173B1"/>
<path d="M38.8783 46.7951H41.47V36.8689H38.8783V46.7951Z" fill="#0173B1"/>
<path d="M42.6401 46.7951H45.3774L47.081 43.8172L48.7845 46.7951H51.5219L48.4351 41.4349L51.1287 36.8689H48.4496L47.081 39.2228L45.7123 36.8689H43.0332L45.756 41.4349L42.6401 46.7951Z" fill="#0173B1"/>
</svg>
